<svg xmlns="http://www.w3.org/2000/svg" width="140" height="41.13" overflow="visible"><path d="M41.24 10.25h.01c-.07-.09-.14-.17-.2-.25-.03-.04-.05-.07-.08-.1C27.13-7.4-4.67 2.28 4.44 6.89c.82.41 1.61.83 2.38 1.25-5.86 1.43-8.92 4.21-5.19 6.1a94.76 94.76 0 016.13 3.4c-.34 1.42-.54 2.9-.54 4.42 0 10.53 8.54 19.07 19.07 19.07s19.07-8.54 19.07-19.07c0-4.46-1.55-8.56-4.12-11.81z" fill="#fdbc41"></path><path fill="#292931" d="M70.89 10c.63-.35 3.54-.56 4.49-.56.39 0 .6.21.74 1.16l1.72 12.8c.49 3.68.84 6.28 1.12 7.96-.63.18-3.33.32-4.14.32-.49 0-.98-.18-1.05-.95-.18-1.72-.39-3.79-.74-7.75l-.7-7.79c-.81 2.84-2.46 8.1-4.63 14.73-.25.81-.56 1.09-1.44 1.26-.77.14-1.75.28-2.6.28-.74-2.42-3.61-11.61-5.02-16.24-.28 3.89-1.05 11.44-1.54 15.86-.04.39-.25.6-.67.6-1.16 0-3.23 0-3.79-.32.56-3.86 1.86-12.77 3.09-20.84l-.06-.52c1.02-.21 2.49-.56 4.49-.56.6-.07.81.14 1.3 1.61l4.46 12.7c1.44-3.79 3.54-9.72 4.98-13.3V10zM97.83 23.48c0 5.09-3.33 8.42-8.31 8.42-4.28 0-7.96-2.63-7.96-8.03 0-4.91 3.54-8.31 8.31-8.31 4.95-.01 7.96 3.36 7.96 7.92zm-11.08-.11c0 3.61 1.44 5.37 3.16 5.37 2.25 0 2.77-2.32 2.77-4.84 0-2.32-.7-5.19-3.16-5.19-2.04 0-2.77 2.21-2.77 4.66zM97.41 36.6c2.84-.95 3.86-2.14 3.86-9.3v-7.26c0-2.14-.07-3.19-.14-3.82.91-.25 3.58-.46 4.39-.46.6 0 .74.18.74 2.21v10.07c0 4.49-.84 6.98-2.25 8.7-1.51 1.75-3.23 2.18-4.39 2.18-1.09 0-2.07-.84-2.28-2.21l.07-.11zm8.91-25.89c0 1.54-1.12 2.6-2.63 2.6-1.16 0-2.53-.67-2.53-2.56 0-1.96 1.65-2.7 2.63-2.7 1.55-.01 2.53 1.18 2.53 2.66zM123.02 27.48c0 1.86-1.51 3.58-2.28 3.89-.49.18-2.03.53-3.12.53-5.26 0-8.21-2.7-8.21-8.07 0-4.1 2.84-8.28 7.68-8.28 4.7 0 6.49 3.4 6.49 6.28 0 .56 0 .95-.07 1.19-.14.53-1.4 1.09-2.98 1.54-.84.25-4.63.25-6.21.18.32 2.63 2.49 3.44 4.49 3.44 1.82 0 3.61-.6 4.1-.84l.11.14zm-8.66-5.55c.88.11 3.3.07 4.24 0 .18 0 .35-.32.35-.74 0-1.44-.63-2.7-2.18-2.7-1.08 0-2.34 1.06-2.41 3.44zM139.44 27.48c0 1.86-1.51 3.58-2.28 3.89-.49.18-2.03.53-3.12.53-5.26 0-8.21-2.7-8.21-8.07 0-4.1 2.84-8.28 7.68-8.28 4.7 0 6.49 3.4 6.49 6.28 0 .56 0 .95-.07 1.19-.14.53-1.4 1.09-2.98 1.54-.84.25-4.63.25-6.21.18.32 2.63 2.49 3.44 4.49 3.44 1.82 0 3.61-.6 4.1-.84l.11.14zm-8.67-5.55c.88.11 3.3.07 4.24 0 .18 0 .35-.32.35-.74 0-1.44-.63-2.7-2.18-2.7-1.07 0-2.34 1.06-2.41 3.44z"></path><path d="M45.36 22.06c0 10.53-8.54 19.07-19.07 19.07-10.53 0-19.07-8.54-19.07-19.07 0-1.53.18-3.01.52-4.44 2 8.39 9.55 14.63 18.55 14.63s16.55-6.24 18.55-14.63c.34 1.43.52 2.91.52 4.44z" fill="#f59e27"></path><circle fill="#fff" cx="29.47" cy="25.2" r="11.78"></circle><circle fill="#292931" cx="31.41" cy="27.28" r="7.29"></circle><circle fill="#fff" cx="34.79" cy="23.23" r="2.52"></circle></svg>